{
	"asset":{
		"generator":"Khronos glTF Blender I/O v4.0.44",
		"version":"2.0"
	},
	"scene":0,
	"scenes":[
		{
			"name":"Scene",
			"nodes":[
				0
			]
		}
	],
	"nodes":[
		{
			"mesh":0,
			"name":"SOLANA_001.001"
		}
	],
	"materials":[
		{
			"doubleSided":true,
			"name":"Material",
			"normalTexture":{
				"index":0,
				"scale":0.40000003576278687
			},
			"pbrMetallicRoughness":{
				"baseColorTexture":{
					"index":1
				},
				"metallicFactor":0,
				"metallicRoughnessTexture":{
					"index":2
				}
			}
		}
	],
	"meshes":[
		{
			"name":"SOLANA_001.001",
			"primitives":[
				{
					"attributes":{
						"POSITION":0,
						"NORMAL":1,
						"TEXCOORD_0":2
					},
					"indices":3,
					"material":0
				}
			]
		}
	],
	"textures":[
		{
			"sampler":0,
			"source":0
		},
		{
			"sampler":1,
			"source":1
		},
		{
			"sampler":1,
			"source":2
		}
	],
	"images":[
		{
			"mimeType":"image/jpeg",
			"name":"SOLANA_LOGO_NB",
			"uri":"SOLANA_LOGO_NB.jpg"
		},
		{
			"mimeType":"image/jpeg",
			"name":"SOLANA_REFLECT",
			"uri":"SOLANA_REFLECT.jpg"
		},
		{
			"mimeType":"image/jpeg",
			"name":"SOLANA_REFLECT",
			"uri":"SOLANA_REFLECT-1.jpg"
		}
	],
	"accessors":[
		{
			"bufferView":0,
			"componentType":5126,
			"count":8880,
			"max":[
				4.923526763916016,
				4.923526763916016,
				0.7409384250640869
			],
			"min":[
				-4.923526763916016,
				-4.923526287078857,
				-0.7409403920173645
			],
			"type":"VEC3"
		},
		{
			"bufferView":1,
			"componentType":5126,
			"count":8880,
			"type":"VEC3"
		},
		{
			"bufferView":2,
			"componentType":5126,
			"count":8880,
			"type":"VEC2"
		},
		{
			"bufferView":3,
			"componentType":5123,
			"count":52800,
			"type":"SCALAR"
		}
	],
	"bufferViews":[
		{
			"buffer":0,
			"byteLength":106560,
			"byteOffset":0,
			"target":34962
		},
		{
			"buffer":0,
			"byteLength":106560,
			"byteOffset":106560,
			"target":34962
		},
		{
			"buffer":0,
			"byteLength":71040,
			"byteOffset":213120,
			"target":34962
		},
		{
			"buffer":0,
			"byteLength":105600,
			"byteOffset":284160,
			"target":34963
		}
	],
	"samplers":[
		{
			"magFilter":9728,
			"minFilter":9984
		},
		{
			"magFilter":9729,
			"minFilter":9987
		}
	],
	"buffers":[
		{
			"byteLength":389760,
			"uri":"soltest.bin"
		}
	]
}
