{
	"asset":{
		"generator":"Khronos glTF Blender I/O v4.0.44",
		"version":"2.0"
	},
	"scene":0,
	"scenes":[
		{
			"name":"Scene",
			"nodes":[
				5
			]
		}
	],
	"nodes":[
		{
			"mesh":0,
			"name":"InsideGlass",
			"translation":[
				0,
				-0.0017500496469438076,
				0
			]
		},
		{
			"mesh":1,
			"name":"InsidePlate"
		},
		{
			"mesh":2,
			"name":"InsidePlate_LogoGlass"
		},
		{
			"mesh":3,
			"name":"OutLogo",
			"rotation":[
				-0.7071068286895752,
				0,
				0,
				0.7071068286895752
			],
			"translation":[
				0,
				-0.0013378355652093887,
				0
			]
		},
		{
			"mesh":4,
			"name":"OutSilver.002"
		},
		{
			"children":[
				0,
				1,
				2,
				3,
				4
			],
			"name":"Empty"
		}
	],
	"materials":[
		{
			"alphaMode":"BLEND",
			"doubleSided":true,
			"name":"M_Glass",
			"pbrMetallicRoughness":{
				"baseColorFactor":[
					0.800000011920929,
					0.800000011920929,
					0.800000011920929,
					0.019999999552965164
				],
				"metallicFactor":0,
				"roughnessFactor":0
			}
		},
		{
			"doubleSided":true,
			"name":"TrianglePattern.001",
			"normalTexture":{
				"index":0
			},
			"pbrMetallicRoughness":{
				"baseColorTexture":{
					"index":1
				},
				"metallicRoughnessTexture":{
					"index":2
				}
			}
		},
		{
			"alphaMode":"BLEND",
			"doubleSided":true,
			"name":"M_GlassLogo",
			"pbrMetallicRoughness":{
				"baseColorFactor":[
					0.800000011920929,
					0.800000011920929,
					0.800000011920929,
					0.07999999821186066
				],
				"metallicFactor":0,
				"roughnessFactor":0.20000000298023224
			}
		},
		{
			"alphaMode":"BLEND",
			"doubleSided":true,
			"name":"M_SmallLogo",
			"pbrMetallicRoughness":{
				"baseColorTexture":{
					"index":3
				},
				"metallicFactor":0,
				"roughnessFactor":0.913636326789856
			}
		},
		{
			"doubleSided":true,
			"name":"PatternSilver",
			"normalTexture":{
				"index":4
			},
			"pbrMetallicRoughness":{
				"baseColorTexture":{
					"index":5
				},
				"metallicRoughnessTexture":{
					"index":6
				}
			}
		}
	],
	"meshes":[
		{
			"name":"Cylinder.002",
			"primitives":[
				{
					"attributes":{
						"POSITION":0,
						"NORMAL":1,
						"TEXCOORD_0":2
					},
					"indices":3,
					"material":0
				}
			]
		},
		{
			"name":"Cylinder.003",
			"primitives":[
				{
					"attributes":{
						"POSITION":4,
						"NORMAL":5,
						"TEXCOORD_0":6
					},
					"indices":7,
					"material":1
				}
			]
		},
		{
			"name":"Cylinder.004",
			"primitives":[
				{
					"attributes":{
						"POSITION":8,
						"NORMAL":9,
						"TEXCOORD_0":10
					},
					"indices":11,
					"material":2
				}
			]
		},
		{
			"name":"Plane",
			"primitives":[
				{
					"attributes":{
						"POSITION":12,
						"NORMAL":13,
						"TEXCOORD_0":14
					},
					"indices":15,
					"material":3
				}
			]
		},
		{
			"name":"Cylinder.016",
			"primitives":[
				{
					"attributes":{
						"POSITION":16,
						"NORMAL":17,
						"TEXCOORD_0":18
					},
					"indices":19,
					"material":4
				}
			]
		}
	],
	"textures":[
		{
			"sampler":0,
			"source":0
		},
		{
			"sampler":0,
			"source":1
		},
		{
			"sampler":0,
			"source":2
		},
		{
			"sampler":0,
			"source":3
		},
		{
			"sampler":0,
			"source":4
		},
		{
			"sampler":0,
			"source":5
		},
		{
			"sampler":0,
			"source":6
		}
	],
	"images":[
		{
			"mimeType":"image/jpeg",
			"name":"InsidePlate_N",
			"uri":"InsidePlate_N.jpg"
		},
		{
			"mimeType":"image/jpeg",
			"name":"InsidePlate_D",
			"uri":"InsidePlate_D.jpg"
		},
		{
			"mimeType":"image/jpeg",
			"name":"InsidePlate_M-InsidePlate_R",
			"uri":"InsidePlate_M-InsidePlate_R.jpg"
		},
		{
			"mimeType":"image/png",
			"name":"OutLogo",
			"uri":"OutLogo.png"
		},
		{
			"mimeType":"image/jpeg",
			"name":"OutSilver_N",
			"uri":"OutSilver_N.jpg"
		},
		{
			"mimeType":"image/jpeg",
			"name":"OutSilver_D",
			"uri":"OutSilver_D.jpg"
		},
		{
			"mimeType":"image/jpeg",
			"name":"OutSilver_M-OutSilver_R",
			"uri":"OutSilver_M-OutSilver_R.jpg"
		}
	],
	"accessors":[
		{
			"bufferView":0,
			"componentType":5126,
			"count":1536,
			"max":[
				0.8720062375068665,
				0.08518321067094803,
				0.8720062375068665
			],
			"min":[
				-0.8720062375068665,
				-0.08518321067094803,
				-0.8720062375068665
			],
			"type":"VEC3"
		},
		{
			"bufferView":1,
			"componentType":5126,
			"count":1536,
			"type":"VEC3"
		},
		{
			"bufferView":2,
			"componentType":5126,
			"count":1536,
			"type":"VEC2"
		},
		{
			"bufferView":3,
			"componentType":5123,
			"count":3048,
			"type":"SCALAR"
		},
		{
			"bufferView":4,
			"componentType":5126,
			"count":4364,
			"max":[
				0.8758294582366943,
				0.03741796314716339,
				0.8758294582366943
			],
			"min":[
				-0.8758294582366943,
				-0.03741796314716339,
				-0.8758294582366943
			],
			"type":"VEC3"
		},
		{
			"bufferView":5,
			"componentType":5126,
			"count":4364,
			"type":"VEC3"
		},
		{
			"bufferView":6,
			"componentType":5126,
			"count":4364,
			"type":"VEC2"
		},
		{
			"bufferView":7,
			"componentType":5123,
			"count":15624,
			"type":"SCALAR"
		},
		{
			"bufferView":8,
			"componentType":5126,
			"count":1282,
			"max":[
				0.6450574994087219,
				0.03681096434593201,
				0.6450574994087219
			],
			"min":[
				-0.6450574994087219,
				-0.03681096434593201,
				-0.6450574994087219
			],
			"type":"VEC3"
		},
		{
			"bufferView":9,
			"componentType":5126,
			"count":1282,
			"type":"VEC3"
		},
		{
			"bufferView":10,
			"componentType":5126,
			"count":1282,
			"type":"VEC2"
		},
		{
			"bufferView":11,
			"componentType":5123,
			"count":6912,
			"type":"SCALAR"
		},
		{
			"bufferView":12,
			"componentType":5126,
			"count":5814,
			"max":[
				1.007603406906128,
				1.0083601474761963,
				0.10488440841436386
			],
			"min":[
				-1.0083472728729248,
				-1.0083575248718262,
				-0.1021360531449318
			],
			"type":"VEC3"
		},
		{
			"bufferView":13,
			"componentType":5126,
			"count":5814,
			"type":"VEC3"
		},
		{
			"bufferView":14,
			"componentType":5126,
			"count":5814,
			"type":"VEC2"
		},
		{
			"bufferView":15,
			"componentType":5123,
			"count":27648,
			"type":"SCALAR"
		},
		{
			"bufferView":16,
			"componentType":5126,
			"count":31476,
			"max":[
				1.0082074403762817,
				0.10369035601615906,
				1.0082074403762817
			],
			"min":[
				-1.0082074403762817,
				-0.10369035601615906,
				-1.0082074403762817
			],
			"type":"VEC3"
		},
		{
			"bufferView":17,
			"componentType":5126,
			"count":31476,
			"type":"VEC3"
		},
		{
			"bufferView":18,
			"componentType":5126,
			"count":31476,
			"type":"VEC2"
		},
		{
			"bufferView":19,
			"componentType":5123,
			"count":184320,
			"type":"SCALAR"
		}
	],
	"bufferViews":[
		{
			"buffer":0,
			"byteLength":18432,
			"byteOffset":0,
			"target":34962
		},
		{
			"buffer":0,
			"byteLength":18432,
			"byteOffset":18432,
			"target":34962
		},
		{
			"buffer":0,
			"byteLength":12288,
			"byteOffset":36864,
			"target":34962
		},
		{
			"buffer":0,
			"byteLength":6096,
			"byteOffset":49152,
			"target":34963
		},
		{
			"buffer":0,
			"byteLength":52368,
			"byteOffset":55248,
			"target":34962
		},
		{
			"buffer":0,
			"byteLength":52368,
			"byteOffset":107616,
			"target":34962
		},
		{
			"buffer":0,
			"byteLength":34912,
			"byteOffset":159984,
			"target":34962
		},
		{
			"buffer":0,
			"byteLength":31248,
			"byteOffset":194896,
			"target":34963
		},
		{
			"buffer":0,
			"byteLength":15384,
			"byteOffset":226144,
			"target":34962
		},
		{
			"buffer":0,
			"byteLength":15384,
			"byteOffset":241528,
			"target":34962
		},
		{
			"buffer":0,
			"byteLength":10256,
			"byteOffset":256912,
			"target":34962
		},
		{
			"buffer":0,
			"byteLength":13824,
			"byteOffset":267168,
			"target":34963
		},
		{
			"buffer":0,
			"byteLength":69768,
			"byteOffset":280992,
			"target":34962
		},
		{
			"buffer":0,
			"byteLength":69768,
			"byteOffset":350760,
			"target":34962
		},
		{
			"buffer":0,
			"byteLength":46512,
			"byteOffset":420528,
			"target":34962
		},
		{
			"buffer":0,
			"byteLength":55296,
			"byteOffset":467040,
			"target":34963
		},
		{
			"buffer":0,
			"byteLength":377712,
			"byteOffset":522336,
			"target":34962
		},
		{
			"buffer":0,
			"byteLength":377712,
			"byteOffset":900048,
			"target":34962
		},
		{
			"buffer":0,
			"byteLength":251808,
			"byteOffset":1277760,
			"target":34962
		},
		{
			"buffer":0,
			"byteLength":368640,
			"byteOffset":1529568,
			"target":34963
		}
	],
	"samplers":[
		{
			"magFilter":9729,
			"minFilter":9987
		}
	],
	"buffers":[
		{
			"byteLength":1898208,
			"uri":"Crypto2Hole_2k.bin"
		}
	]
}
