{
	"asset":{
		"generator":"Khronos glTF Blender I/O v4.0.44",
		"version":"2.0"
	},
	"scene":0,
	"scenes":[
		{
			"name":"Scene",
			"nodes":[
				5,
				12
			]
		}
	],
	"nodes":[
		{
			"mesh":0,
			"name":"InsideGlass",
			"translation":[
				0,
				-0.0017500496469438076,
				0
			]
		},
		{
			"mesh":1,
			"name":"InsidePlate"
		},
		{
			"mesh":2,
			"name":"InsidePlate_LogoGlass"
		},
		{
			"mesh":3,
			"name":"OutLogo",
			"rotation":[
				-0.7071068286895752,
				0,
				0,
				0.7071068286895752
			],
			"translation":[
				0,
				-0.0013378355652093887,
				0
			]
		},
		{
			"mesh":4,
			"name":"OutSilver.002"
		},
		{
			"children":[
				0,
				1,
				2,
				3,
				4
			],
			"name":"Empty"
		},
		{
			"mesh":5,
			"name":"InsideGlass.001",
			"translation":[
				0,
				-0.0017500496469438076,
				0
			]
		},
		{
			"mesh":6,
			"name":"InsidePlate.002"
		},
		{
			"mesh":7,
			"name":"Logo.001"
		},
		{
			"mesh":8,
			"name":"Logo.002",
			"rotation":[
				0,
				0,
				-1,
				0
			],
			"translation":[
				0,
				-0.08545482158660889,
				0
			]
		},
		{
			"mesh":9,
			"name":"OutLogo.001",
			"rotation":[
				-0.7071068286895752,
				0,
				0,
				0.7071068286895752
			],
			"translation":[
				0,
				-0.0013378355652093887,
				0
			]
		},
		{
			"mesh":10,
			"name":"OutSilver.001"
		},
		{
			"children":[
				6,
				7,
				8,
				9,
				10,
				11
			],
			"name":"Empty.001"
		}
	],
	"materials":[
		{
			"alphaMode":"BLEND",
			"doubleSided":true,
			"name":"M_Glass",
			"pbrMetallicRoughness":{
				"baseColorFactor":[
					0.800000011920929,
					0.800000011920929,
					0.800000011920929,
					0.019999999552965164
				],
				"metallicFactor":0,
				"roughnessFactor":0
			}
		},
		{
			"doubleSided":true,
			"name":"TrianglePattern.001",
			"normalTexture":{
				"index":0
			},
			"pbrMetallicRoughness":{
				"baseColorTexture":{
					"index":1
				},
				"metallicRoughnessTexture":{
					"index":2
				}
			}
		},
		{
			"alphaMode":"BLEND",
			"doubleSided":true,
			"name":"M_GlassLogo",
			"pbrMetallicRoughness":{}
		},
		{
			"alphaMode":"BLEND",
			"doubleSided":true,
			"name":"M_SmallLogo",
			"pbrMetallicRoughness":{
				"baseColorTexture":{
					"index":3
				},
				"metallicFactor":0,
				"roughnessFactor":0.913636326789856
			}
		},
		{
			"doubleSided":true,
			"name":"PatternSilver",
			"normalTexture":{
				"index":4
			},
			"pbrMetallicRoughness":{
				"baseColorTexture":{
					"index":5
				},
				"metallicRoughnessTexture":{
					"index":6
				}
			}
		},
		{
			"doubleSided":true,
			"name":"SilverLogo",
			"pbrMetallicRoughness":{
				"baseColorTexture":{
					"index":7
				},
				"metallicRoughnessTexture":{
					"index":8
				}
			}
		}
	],
	"meshes":[
		{
			"name":"Cylinder.002",
			"primitives":[
				{
					"attributes":{
						"POSITION":0,
						"NORMAL":1,
						"TEXCOORD_0":2
					},
					"indices":3,
					"material":0
				}
			]
		},
		{
			"name":"Cylinder.003",
			"primitives":[
				{
					"attributes":{
						"POSITION":4,
						"NORMAL":5,
						"TEXCOORD_0":6
					},
					"indices":7,
					"material":1
				}
			]
		},
		{
			"name":"Cylinder.004",
			"primitives":[
				{
					"attributes":{
						"POSITION":8,
						"NORMAL":9,
						"TEXCOORD_0":10
					},
					"indices":11,
					"material":2
				}
			]
		},
		{
			"name":"Plane",
			"primitives":[
				{
					"attributes":{
						"POSITION":12,
						"NORMAL":13,
						"TEXCOORD_0":14
					},
					"indices":15,
					"material":3
				}
			]
		},
		{
			"name":"Cylinder.016",
			"primitives":[
				{
					"attributes":{
						"POSITION":16,
						"NORMAL":17,
						"TEXCOORD_0":18
					},
					"indices":19,
					"material":4
				}
			]
		},
		{
			"name":"Cylinder.009",
			"primitives":[
				{
					"attributes":{
						"POSITION":20,
						"NORMAL":21,
						"TEXCOORD_0":22
					},
					"indices":3,
					"material":0
				}
			]
		},
		{
			"name":"Cylinder.010",
			"primitives":[
				{
					"attributes":{
						"POSITION":23,
						"NORMAL":24,
						"TEXCOORD_0":25
					},
					"indices":26,
					"material":1
				}
			]
		},
		{
			"name":"Curve.003",
			"primitives":[
				{
					"attributes":{
						"POSITION":27,
						"NORMAL":28,
						"TEXCOORD_0":29
					},
					"indices":30,
					"material":5
				}
			]
		},
		{
			"name":"Curve.002",
			"primitives":[
				{
					"attributes":{
						"POSITION":31,
						"NORMAL":32,
						"TEXCOORD_0":33
					},
					"indices":34,
					"material":5
				}
			]
		},
		{
			"name":"Plane.004",
			"primitives":[
				{
					"attributes":{
						"POSITION":35,
						"NORMAL":36,
						"TEXCOORD_0":37
					},
					"indices":15,
					"material":3
				}
			]
		},
		{
			"name":"Cylinder.006",
			"primitives":[
				{
					"attributes":{
						"POSITION":38,
						"NORMAL":39,
						"TEXCOORD_0":40
					},
					"indices":19,
					"material":4
				}
			]
		}
	],
	"textures":[
		{
			"sampler":0,
			"source":0
		},
		{
			"sampler":0,
			"source":1
		},
		{
			"sampler":0,
			"source":2
		},
		{
			"sampler":0,
			"source":3
		},
		{
			"sampler":0,
			"source":4
		},
		{
			"sampler":0,
			"source":5
		},
		{
			"sampler":0,
			"source":6
		},
		{
			"sampler":0,
			"source":7
		},
		{
			"sampler":0,
			"source":8
		}
	],
	"images":[
		{
			"mimeType":"image/jpeg",
			"name":"InsidePlate_N",
			"uri":"tex/InsidePlate_N.jpg"
		},
		{
			"mimeType":"image/jpeg",
			"name":"InsidePlate_D",
			"uri":"tex/InsidePlate_D.jpg"
		},
		{
			"mimeType":"image/jpeg",
			"name":"InsidePlate_M-InsidePlate_R",
			"uri":"tex/InsidePlate_M-InsidePlate_R.jpg"
		},
		{
			"mimeType":"image/png",
			"name":"OutLogo",
			"uri":"tex/OutLogo.png"
		},
		{
			"mimeType":"image/jpeg",
			"name":"OutSilver_N",
			"uri":"tex/OutSilver_N.jpg"
		},
		{
			"mimeType":"image/jpeg",
			"name":"OutSilver_D",
			"uri":"tex/OutSilver_D.jpg"
		},
		{
			"mimeType":"image/jpeg",
			"name":"OutSilver_M-Out_R",
			"uri":"tex/OutSilver_M-Out_R.jpg"
		},
		{
			"mimeType":"image/jpeg",
			"name":"Logo_D",
			"uri":"tex/Logo_D.jpg"
		},
		{
			"mimeType":"image/jpeg",
			"name":"Logo_M-Logo_R",
			"uri":"tex/Logo_M-Logo_R.jpg"
		}
	],
	"accessors":[
		{
			"bufferView":0,
			"componentType":5126,
			"count":1536,
			"max":[
				0.8720062375068665,
				0.08518321067094803,
				0.8720062375068665
			],
			"min":[
				-0.8720062375068665,
				-0.08518321067094803,
				-0.8720062375068665
			],
			"type":"VEC3"
		},
		{
			"bufferView":1,
			"componentType":5126,
			"count":1536,
			"type":"VEC3"
		},
		{
			"bufferView":2,
			"componentType":5126,
			"count":1536,
			"type":"VEC2"
		},
		{
			"bufferView":3,
			"componentType":5123,
			"count":3048,
			"type":"SCALAR"
		},
		{
			"bufferView":4,
			"componentType":5126,
			"count":4364,
			"max":[
				0.8758294582366943,
				0.03741796314716339,
				0.8758294582366943
			],
			"min":[
				-0.8758294582366943,
				-0.03741796314716339,
				-0.8758294582366943
			],
			"type":"VEC3"
		},
		{
			"bufferView":5,
			"componentType":5126,
			"count":4364,
			"type":"VEC3"
		},
		{
			"bufferView":6,
			"componentType":5126,
			"count":4364,
			"type":"VEC2"
		},
		{
			"bufferView":7,
			"componentType":5123,
			"count":15624,
			"type":"SCALAR"
		},
		{
			"bufferView":8,
			"componentType":5126,
			"count":1282,
			"max":[
				0.6450574994087219,
				0.03681096434593201,
				0.6450574994087219
			],
			"min":[
				-0.6450574994087219,
				-0.03681096434593201,
				-0.6450574994087219
			],
			"type":"VEC3"
		},
		{
			"bufferView":9,
			"componentType":5126,
			"count":1282,
			"type":"VEC3"
		},
		{
			"bufferView":10,
			"componentType":5126,
			"count":1282,
			"type":"VEC2"
		},
		{
			"bufferView":11,
			"componentType":5123,
			"count":6912,
			"type":"SCALAR"
		},
		{
			"bufferView":12,
			"componentType":5126,
			"count":6137,
			"max":[
				1.007603406906128,
				1.0083833932876587,
				0.10488440841436386
			],
			"min":[
				-1.0083472728729248,
				-1.0083575248718262,
				-0.1021360531449318
			],
			"type":"VEC3"
		},
		{
			"bufferView":13,
			"componentType":5126,
			"count":6137,
			"type":"VEC3"
		},
		{
			"bufferView":14,
			"componentType":5126,
			"count":6137,
			"type":"VEC2"
		},
		{
			"bufferView":15,
			"componentType":5123,
			"count":29184,
			"type":"SCALAR"
		},
		{
			"bufferView":16,
			"componentType":5126,
			"count":31476,
			"max":[
				1.0082074403762817,
				0.10369035601615906,
				1.0082074403762817
			],
			"min":[
				-1.0082074403762817,
				-0.10369035601615906,
				-1.0082074403762817
			],
			"type":"VEC3"
		},
		{
			"bufferView":17,
			"componentType":5126,
			"count":31476,
			"type":"VEC3"
		},
		{
			"bufferView":18,
			"componentType":5126,
			"count":31476,
			"type":"VEC2"
		},
		{
			"bufferView":19,
			"componentType":5123,
			"count":184320,
			"type":"SCALAR"
		},
		{
			"bufferView":20,
			"componentType":5126,
			"count":1536,
			"max":[
				0.8720062375068665,
				0.08518321067094803,
				0.8720062375068665
			],
			"min":[
				-0.8720062375068665,
				-0.08518321067094803,
				-0.8720062375068665
			],
			"type":"VEC3"
		},
		{
			"bufferView":21,
			"componentType":5126,
			"count":1536,
			"type":"VEC3"
		},
		{
			"bufferView":22,
			"componentType":5126,
			"count":1536,
			"type":"VEC2"
		},
		{
			"bufferView":23,
			"componentType":5126,
			"count":78850,
			"max":[
				0.8754779100418091,
				0.037417974323034286,
				0.8754779100418091
			],
			"min":[
				-0.8754779100418091,
				-0.037417974323034286,
				-0.8754779100418091
			],
			"type":"VEC3"
		},
		{
			"bufferView":24,
			"componentType":5126,
			"count":78850,
			"type":"VEC3"
		},
		{
			"bufferView":25,
			"componentType":5126,
			"count":78850,
			"type":"VEC2"
		},
		{
			"bufferView":26,
			"componentType":5125,
			"count":466944,
			"type":"SCALAR"
		},
		{
			"bufferView":27,
			"componentType":5126,
			"count":12989,
			"max":[
				0.5809721946716309,
				0.05338920280337334,
				0.24596233665943146
			],
			"min":[
				-0.6148527264595032,
				0.031389687210321426,
				-0.38259363174438477
			],
			"type":"VEC3"
		},
		{
			"bufferView":28,
			"componentType":5126,
			"count":12989,
			"type":"VEC3"
		},
		{
			"bufferView":29,
			"componentType":5126,
			"count":12989,
			"type":"VEC2"
		},
		{
			"bufferView":30,
			"componentType":5123,
			"count":62940,
			"type":"SCALAR"
		},
		{
			"bufferView":31,
			"componentType":5126,
			"count":12989,
			"max":[
				0.5809721946716309,
				-0.031389687210321426,
				0.24596233665943146
			],
			"min":[
				-0.6148527264595032,
				-0.05338920280337334,
				-0.38259363174438477
			],
			"type":"VEC3"
		},
		{
			"bufferView":32,
			"componentType":5126,
			"count":12989,
			"type":"VEC3"
		},
		{
			"bufferView":33,
			"componentType":5126,
			"count":12989,
			"type":"VEC2"
		},
		{
			"bufferView":34,
			"componentType":5123,
			"count":62940,
			"type":"SCALAR"
		},
		{
			"bufferView":35,
			"componentType":5126,
			"count":6137,
			"max":[
				1.007603406906128,
				1.0083833932876587,
				0.10488440841436386
			],
			"min":[
				-1.0083472728729248,
				-1.0083575248718262,
				-0.1021360531449318
			],
			"type":"VEC3"
		},
		{
			"bufferView":36,
			"componentType":5126,
			"count":6137,
			"type":"VEC3"
		},
		{
			"bufferView":37,
			"componentType":5126,
			"count":6137,
			"type":"VEC2"
		},
		{
			"bufferView":38,
			"componentType":5126,
			"count":31476,
			"max":[
				1.0082074403762817,
				0.10369035601615906,
				1.0082074403762817
			],
			"min":[
				-1.0082074403762817,
				-0.10369035601615906,
				-1.0082074403762817
			],
			"type":"VEC3"
		},
		{
			"bufferView":39,
			"componentType":5126,
			"count":31476,
			"type":"VEC3"
		},
		{
			"bufferView":40,
			"componentType":5126,
			"count":31476,
			"type":"VEC2"
		}
	],
	"bufferViews":[
		{
			"buffer":0,
			"byteLength":18432,
			"byteOffset":0,
			"target":34962
		},
		{
			"buffer":0,
			"byteLength":18432,
			"byteOffset":18432,
			"target":34962
		},
		{
			"buffer":0,
			"byteLength":12288,
			"byteOffset":36864,
			"target":34962
		},
		{
			"buffer":0,
			"byteLength":6096,
			"byteOffset":49152,
			"target":34963
		},
		{
			"buffer":0,
			"byteLength":52368,
			"byteOffset":55248,
			"target":34962
		},
		{
			"buffer":0,
			"byteLength":52368,
			"byteOffset":107616,
			"target":34962
		},
		{
			"buffer":0,
			"byteLength":34912,
			"byteOffset":159984,
			"target":34962
		},
		{
			"buffer":0,
			"byteLength":31248,
			"byteOffset":194896,
			"target":34963
		},
		{
			"buffer":0,
			"byteLength":15384,
			"byteOffset":226144,
			"target":34962
		},
		{
			"buffer":0,
			"byteLength":15384,
			"byteOffset":241528,
			"target":34962
		},
		{
			"buffer":0,
			"byteLength":10256,
			"byteOffset":256912,
			"target":34962
		},
		{
			"buffer":0,
			"byteLength":13824,
			"byteOffset":267168,
			"target":34963
		},
		{
			"buffer":0,
			"byteLength":73644,
			"byteOffset":280992,
			"target":34962
		},
		{
			"buffer":0,
			"byteLength":73644,
			"byteOffset":354636,
			"target":34962
		},
		{
			"buffer":0,
			"byteLength":49096,
			"byteOffset":428280,
			"target":34962
		},
		{
			"buffer":0,
			"byteLength":58368,
			"byteOffset":477376,
			"target":34963
		},
		{
			"buffer":0,
			"byteLength":377712,
			"byteOffset":535744,
			"target":34962
		},
		{
			"buffer":0,
			"byteLength":377712,
			"byteOffset":913456,
			"target":34962
		},
		{
			"buffer":0,
			"byteLength":251808,
			"byteOffset":1291168,
			"target":34962
		},
		{
			"buffer":0,
			"byteLength":368640,
			"byteOffset":1542976,
			"target":34963
		},
		{
			"buffer":0,
			"byteLength":18432,
			"byteOffset":1911616,
			"target":34962
		},
		{
			"buffer":0,
			"byteLength":18432,
			"byteOffset":1930048,
			"target":34962
		},
		{
			"buffer":0,
			"byteLength":12288,
			"byteOffset":1948480,
			"target":34962
		},
		{
			"buffer":0,
			"byteLength":946200,
			"byteOffset":1960768,
			"target":34962
		},
		{
			"buffer":0,
			"byteLength":946200,
			"byteOffset":2906968,
			"target":34962
		},
		{
			"buffer":0,
			"byteLength":630800,
			"byteOffset":3853168,
			"target":34962
		},
		{
			"buffer":0,
			"byteLength":1867776,
			"byteOffset":4483968,
			"target":34963
		},
		{
			"buffer":0,
			"byteLength":155868,
			"byteOffset":6351744,
			"target":34962
		},
		{
			"buffer":0,
			"byteLength":155868,
			"byteOffset":6507612,
			"target":34962
		},
		{
			"buffer":0,
			"byteLength":103912,
			"byteOffset":6663480,
			"target":34962
		},
		{
			"buffer":0,
			"byteLength":125880,
			"byteOffset":6767392,
			"target":34963
		},
		{
			"buffer":0,
			"byteLength":155868,
			"byteOffset":6893272,
			"target":34962
		},
		{
			"buffer":0,
			"byteLength":155868,
			"byteOffset":7049140,
			"target":34962
		},
		{
			"buffer":0,
			"byteLength":103912,
			"byteOffset":7205008,
			"target":34962
		},
		{
			"buffer":0,
			"byteLength":125880,
			"byteOffset":7308920,
			"target":34963
		},
		{
			"buffer":0,
			"byteLength":73644,
			"byteOffset":7434800,
			"target":34962
		},
		{
			"buffer":0,
			"byteLength":73644,
			"byteOffset":7508444,
			"target":34962
		},
		{
			"buffer":0,
			"byteLength":49096,
			"byteOffset":7582088,
			"target":34962
		},
		{
			"buffer":0,
			"byteLength":377712,
			"byteOffset":7631184,
			"target":34962
		},
		{
			"buffer":0,
			"byteLength":377712,
			"byteOffset":8008896,
			"target":34962
		},
		{
			"buffer":0,
			"byteLength":251808,
			"byteOffset":8386608,
			"target":34962
		}
	],
	"samplers":[
		{
			"magFilter":9729,
			"minFilter":9987
		}
	],
	"buffers":[
		{
			"byteLength":8638416,
			"uri":"Crypto2_princ.bin"
		}
	]
}
