{
	"asset":{
		"generator":"Khronos glTF Blender I/O v4.0.44",
		"version":"2.0"
	},
	"scene":0,
	"scenes":[
		{
			"name":"Scene",
			"nodes":[
				6
			]
		}
	],
	"nodes":[
		{
			"mesh":0,
			"name":"InsideGlass.001",
			"translation":[
				0,
				-0.0017500496469438076,
				0
			]
		},
		{
			"mesh":1,
			"name":"InsidePlate.002"
		},
		{
			"mesh":2,
			"name":"Logo.001"
		},
		{
			"mesh":3,
			"name":"Logo.002",
			"rotation":[
				0,
				0,
				-1,
				0
			],
			"translation":[
				0,
				-0.08545482158660889,
				0
			]
		},
		{
			"mesh":4,
			"name":"OutLogo.001",
			"rotation":[
				-0.7071068286895752,
				0,
				0,
				0.7071068286895752
			],
			"translation":[
				0,
				-0.0013378355652093887,
				0
			]
		},
		{
			"mesh":5,
			"name":"OutSilver.001"
		},
		{
			"children":[
				0,
				1,
				2,
				3,
				4,
				5
			],
			"name":"Empty.001"
		}
	],
	"materials":[
		{
			"alphaMode":"BLEND",
			"doubleSided":true,
			"name":"M_Glass",
			"pbrMetallicRoughness":{
				"baseColorFactor":[
					0.800000011920929,
					0.800000011920929,
					0.800000011920929,
					0.019999999552965164
				],
				"metallicFactor":0,
				"roughnessFactor":0
			}
		},
		{
			"doubleSided":true,
			"name":"TrianglePattern.001",
			"normalTexture":{
				"index":0
			},
			"pbrMetallicRoughness":{
				"baseColorTexture":{
					"index":1
				},
				"metallicRoughnessTexture":{
					"index":2
				}
			}
		},
		{
			"doubleSided":true,
			"name":"SilverLogo",
			"pbrMetallicRoughness":{
				"baseColorTexture":{
					"index":3
				},
				"metallicRoughnessTexture":{
					"index":4
				}
			}
		},
		{
			"alphaMode":"BLEND",
			"doubleSided":true,
			"name":"M_SmallLogo",
			"pbrMetallicRoughness":{
				"baseColorTexture":{
					"index":5
				},
				"metallicFactor":0,
				"roughnessFactor":0.913636326789856
			}
		},
		{
			"doubleSided":true,
			"name":"PatternSilver",
			"normalTexture":{
				"index":6
			},
			"pbrMetallicRoughness":{
				"baseColorTexture":{
					"index":7
				},
				"metallicRoughnessTexture":{
					"index":8
				}
			}
		}
	],
	"meshes":[
		{
			"name":"Cylinder.009",
			"primitives":[
				{
					"attributes":{
						"POSITION":0,
						"NORMAL":1,
						"TEXCOORD_0":2
					},
					"indices":3,
					"material":0
				}
			]
		},
		{
			"name":"Cylinder.010",
			"primitives":[
				{
					"attributes":{
						"POSITION":4,
						"NORMAL":5,
						"TEXCOORD_0":6
					},
					"indices":7,
					"material":1
				}
			]
		},
		{
			"name":"Curve.003",
			"primitives":[
				{
					"attributes":{
						"POSITION":8,
						"NORMAL":9,
						"TEXCOORD_0":10
					},
					"indices":11,
					"material":2
				}
			]
		},
		{
			"name":"Curve.002",
			"primitives":[
				{
					"attributes":{
						"POSITION":12,
						"NORMAL":13,
						"TEXCOORD_0":14
					},
					"indices":15,
					"material":2
				}
			]
		},
		{
			"name":"Plane.004",
			"primitives":[
				{
					"attributes":{
						"POSITION":16,
						"NORMAL":17,
						"TEXCOORD_0":18
					},
					"indices":19,
					"material":3
				}
			]
		},
		{
			"name":"Cylinder.006",
			"primitives":[
				{
					"attributes":{
						"POSITION":20,
						"NORMAL":21,
						"TEXCOORD_0":22
					},
					"indices":23,
					"material":4
				}
			]
		}
	],
	"textures":[
		{
			"sampler":0,
			"source":0
		},
		{
			"sampler":0,
			"source":1
		},
		{
			"sampler":0,
			"source":2
		},
		{
			"sampler":0,
			"source":3
		},
		{
			"sampler":0,
			"source":4
		},
		{
			"sampler":0,
			"source":5
		},
		{
			"sampler":0,
			"source":6
		},
		{
			"sampler":0,
			"source":7
		},
		{
			"sampler":0,
			"source":8
		}
	],
	"images":[
		{
			"mimeType":"image/jpeg",
			"name":"InsidePlate_N",
			"uri":"InsidePlate_N.jpg"
		},
		{
			"mimeType":"image/jpeg",
			"name":"InsidePlate_D",
			"uri":"InsidePlate_D.jpg"
		},
		{
			"mimeType":"image/jpeg",
			"name":"InsidePlate_M-InsidePlate_R",
			"uri":"InsidePlate_M-InsidePlate_R.jpg"
		},
		{
			"mimeType":"image/jpeg",
			"name":"Logo_D",
			"uri":"Logo_D.jpg"
		},
		{
			"mimeType":"image/jpeg",
			"name":"Logo_M-Logo_R",
			"uri":"Logo_M-Logo_R.jpg"
		},
		{
			"mimeType":"image/png",
			"name":"OutLogo",
			"uri":"OutLogo.png"
		},
		{
			"mimeType":"image/jpeg",
			"name":"OutSilver_N",
			"uri":"OutSilver_N.jpg"
		},
		{
			"mimeType":"image/jpeg",
			"name":"OutSilver_D",
			"uri":"OutSilver_D.jpg"
		},
		{
			"mimeType":"image/jpeg",
			"name":"OutSilver_M-OutSilver_R",
			"uri":"OutSilver_M-OutSilver_R.jpg"
		}
	],
	"accessors":[
		{
			"bufferView":0,
			"componentType":5126,
			"count":1536,
			"max":[
				0.8720062375068665,
				0.08518321067094803,
				0.8720062375068665
			],
			"min":[
				-0.8720062375068665,
				-0.08518321067094803,
				-0.8720062375068665
			],
			"type":"VEC3"
		},
		{
			"bufferView":1,
			"componentType":5126,
			"count":1536,
			"type":"VEC3"
		},
		{
			"bufferView":2,
			"componentType":5126,
			"count":1536,
			"type":"VEC2"
		},
		{
			"bufferView":3,
			"componentType":5123,
			"count":3048,
			"type":"SCALAR"
		},
		{
			"bufferView":4,
			"componentType":5126,
			"count":78850,
			"max":[
				0.8754779100418091,
				0.037417974323034286,
				0.8754779100418091
			],
			"min":[
				-0.8754779100418091,
				-0.037417974323034286,
				-0.8754779100418091
			],
			"type":"VEC3"
		},
		{
			"bufferView":5,
			"componentType":5126,
			"count":78850,
			"type":"VEC3"
		},
		{
			"bufferView":6,
			"componentType":5126,
			"count":78850,
			"type":"VEC2"
		},
		{
			"bufferView":7,
			"componentType":5125,
			"count":466944,
			"type":"SCALAR"
		},
		{
			"bufferView":8,
			"componentType":5126,
			"count":12989,
			"max":[
				0.5809721946716309,
				0.05338920280337334,
				0.24596233665943146
			],
			"min":[
				-0.6148527264595032,
				0.031389687210321426,
				-0.38259363174438477
			],
			"type":"VEC3"
		},
		{
			"bufferView":9,
			"componentType":5126,
			"count":12989,
			"type":"VEC3"
		},
		{
			"bufferView":10,
			"componentType":5126,
			"count":12989,
			"type":"VEC2"
		},
		{
			"bufferView":11,
			"componentType":5123,
			"count":62940,
			"type":"SCALAR"
		},
		{
			"bufferView":12,
			"componentType":5126,
			"count":12989,
			"max":[
				0.5809721946716309,
				-0.031389687210321426,
				0.24596233665943146
			],
			"min":[
				-0.6148527264595032,
				-0.05338920280337334,
				-0.38259363174438477
			],
			"type":"VEC3"
		},
		{
			"bufferView":13,
			"componentType":5126,
			"count":12989,
			"type":"VEC3"
		},
		{
			"bufferView":14,
			"componentType":5126,
			"count":12989,
			"type":"VEC2"
		},
		{
			"bufferView":15,
			"componentType":5123,
			"count":62940,
			"type":"SCALAR"
		},
		{
			"bufferView":16,
			"componentType":5126,
			"count":5814,
			"max":[
				1.007603406906128,
				1.0083519220352173,
				0.10488440841436386
			],
			"min":[
				-1.0083472728729248,
				-1.0083575248718262,
				-0.1021360531449318
			],
			"type":"VEC3"
		},
		{
			"bufferView":17,
			"componentType":5126,
			"count":5814,
			"type":"VEC3"
		},
		{
			"bufferView":18,
			"componentType":5126,
			"count":5814,
			"type":"VEC2"
		},
		{
			"bufferView":19,
			"componentType":5123,
			"count":27648,
			"type":"SCALAR"
		},
		{
			"bufferView":20,
			"componentType":5126,
			"count":31476,
			"max":[
				1.0082074403762817,
				0.10369035601615906,
				1.0082074403762817
			],
			"min":[
				-1.0082074403762817,
				-0.10369035601615906,
				-1.0082074403762817
			],
			"type":"VEC3"
		},
		{
			"bufferView":21,
			"componentType":5126,
			"count":31476,
			"type":"VEC3"
		},
		{
			"bufferView":22,
			"componentType":5126,
			"count":31476,
			"type":"VEC2"
		},
		{
			"bufferView":23,
			"componentType":5123,
			"count":184320,
			"type":"SCALAR"
		}
	],
	"bufferViews":[
		{
			"buffer":0,
			"byteLength":18432,
			"byteOffset":0,
			"target":34962
		},
		{
			"buffer":0,
			"byteLength":18432,
			"byteOffset":18432,
			"target":34962
		},
		{
			"buffer":0,
			"byteLength":12288,
			"byteOffset":36864,
			"target":34962
		},
		{
			"buffer":0,
			"byteLength":6096,
			"byteOffset":49152,
			"target":34963
		},
		{
			"buffer":0,
			"byteLength":946200,
			"byteOffset":55248,
			"target":34962
		},
		{
			"buffer":0,
			"byteLength":946200,
			"byteOffset":1001448,
			"target":34962
		},
		{
			"buffer":0,
			"byteLength":630800,
			"byteOffset":1947648,
			"target":34962
		},
		{
			"buffer":0,
			"byteLength":1867776,
			"byteOffset":2578448,
			"target":34963
		},
		{
			"buffer":0,
			"byteLength":155868,
			"byteOffset":4446224,
			"target":34962
		},
		{
			"buffer":0,
			"byteLength":155868,
			"byteOffset":4602092,
			"target":34962
		},
		{
			"buffer":0,
			"byteLength":103912,
			"byteOffset":4757960,
			"target":34962
		},
		{
			"buffer":0,
			"byteLength":125880,
			"byteOffset":4861872,
			"target":34963
		},
		{
			"buffer":0,
			"byteLength":155868,
			"byteOffset":4987752,
			"target":34962
		},
		{
			"buffer":0,
			"byteLength":155868,
			"byteOffset":5143620,
			"target":34962
		},
		{
			"buffer":0,
			"byteLength":103912,
			"byteOffset":5299488,
			"target":34962
		},
		{
			"buffer":0,
			"byteLength":125880,
			"byteOffset":5403400,
			"target":34963
		},
		{
			"buffer":0,
			"byteLength":69768,
			"byteOffset":5529280,
			"target":34962
		},
		{
			"buffer":0,
			"byteLength":69768,
			"byteOffset":5599048,
			"target":34962
		},
		{
			"buffer":0,
			"byteLength":46512,
			"byteOffset":5668816,
			"target":34962
		},
		{
			"buffer":0,
			"byteLength":55296,
			"byteOffset":5715328,
			"target":34963
		},
		{
			"buffer":0,
			"byteLength":377712,
			"byteOffset":5770624,
			"target":34962
		},
		{
			"buffer":0,
			"byteLength":377712,
			"byteOffset":6148336,
			"target":34962
		},
		{
			"buffer":0,
			"byteLength":251808,
			"byteOffset":6526048,
			"target":34962
		},
		{
			"buffer":0,
			"byteLength":368640,
			"byteOffset":6777856,
			"target":34963
		}
	],
	"samplers":[
		{
			"magFilter":9729,
			"minFilter":9987
		}
	],
	"buffers":[
		{
			"byteLength":7146496,
			"uri":"Crypto2_optimised.bin"
		}
	]
}
