{
	"asset":{
		"generator":"Khronos glTF Blender I/O v4.0.44",
		"version":"2.0"
	},
	"scene":0,
	"scenes":[
		{
			"name":"Scene",
			"nodes":[
				0
			]
		}
	],
	"nodes":[
		{
			"mesh":0,
			"name":"OutLogo.001",
			"rotation":[
				-0.7071068286895752,
				0,
				0,
				0.7071068286895752
			],
			"translation":[
				0,
				-0.0013378355652093887,
				0
			]
		}
	],
	"materials":[
		{
			"alphaMode":"BLEND",
			"doubleSided":true,
			"name":"M_SmallLogo",
			"pbrMetallicRoughness":{
				"baseColorTexture":{
					"index":0
				},
				"metallicFactor":0,
				"roughnessFactor":0.913636326789856
			}
		}
	],
	"meshes":[
		{
			"name":"Plane.004",
			"primitives":[
				{
					"attributes":{
						"POSITION":0,
						"NORMAL":1,
						"TEXCOORD_0":2
					},
					"indices":3,
					"material":0
				}
			]
		}
	],
	"textures":[
		{
			"sampler":0,
			"source":0
		}
	],
	"images":[
		{
			"mimeType":"image/png",
			"name":"OutLogo",
			"uri":"OutLogo.png"
		}
	],
	"accessors":[
		{
			"bufferView":0,
			"componentType":5126,
			"count":6137,
			"max":[
				1.007603406906128,
				1.0083833932876587,
				0.10488440841436386
			],
			"min":[
				-1.0083472728729248,
				-1.0083575248718262,
				-0.1021360531449318
			],
			"type":"VEC3"
		},
		{
			"bufferView":1,
			"componentType":5126,
			"count":6137,
			"type":"VEC3"
		},
		{
			"bufferView":2,
			"componentType":5126,
			"count":6137,
			"type":"VEC2"
		},
		{
			"bufferView":3,
			"componentType":5123,
			"count":29184,
			"type":"SCALAR"
		}
	],
	"bufferViews":[
		{
			"buffer":0,
			"byteLength":73644,
			"byteOffset":0,
			"target":34962
		},
		{
			"buffer":0,
			"byteLength":73644,
			"byteOffset":73644,
			"target":34962
		},
		{
			"buffer":0,
			"byteLength":49096,
			"byteOffset":147288,
			"target":34962
		},
		{
			"buffer":0,
			"byteLength":58368,
			"byteOffset":196384,
			"target":34963
		}
	],
	"samplers":[
		{
			"magFilter":9729,
			"minFilter":9987
		}
	],
	"buffers":[
		{
			"byteLength":254752,
			"uri":"Crypto2_logo.bin"
		}
	]
}
