{
	"asset":{
		"generator":"Khronos glTF Blender I/O v4.0.44",
		"version":"2.0"
	},
	"scene":0,
	"scenes":[
		{
			"name":"Scene",
			"nodes":[
				0
			]
		}
	],
	"nodes":[
		{
			"mesh":0,
			"name":"OutSilver.001"
		}
	],
	"materials":[
		{
			"doubleSided":true,
			"name":"PatternSilver",
			"normalTexture":{
				"index":0
			},
			"pbrMetallicRoughness":{
				"baseColorTexture":{
					"index":1
				},
				"metallicRoughnessTexture":{
					"index":2
				}
			}
		}
	],
	"meshes":[
		{
			"name":"Cylinder.006",
			"primitives":[
				{
					"attributes":{
						"COLOR_0":0,
						"POSITION":1,
						"NORMAL":2,
						"TEXCOORD_0":3
					},
					"indices":4,
					"material":0
				}
			]
		}
	],
	"textures":[
		{
			"sampler":0,
			"source":0
		},
		{
			"sampler":0,
			"source":1
		},
		{
			"sampler":0,
			"source":2
		}
	],
	"images":[
		{
			"mimeType":"image/jpeg",
			"name":"OutSilver_N",
			"uri":"OutSilver_N.jpg"
		},
		{
			"mimeType":"image/jpeg",
			"name":"OutSilver_D",
			"uri":"OutSilver_D.jpg"
		},
		{
			"mimeType":"image/jpeg",
			"name":"OutSilver_M-Out_R",
			"uri":"OutSilver_M-Out_R.jpg"
		}
	],
	"accessors":[
		{
			"bufferView":0,
			"componentType":5126,
			"count":31476,
			"type":"VEC4"
		},
		{
			"bufferView":1,
			"componentType":5126,
			"count":31476,
			"max":[
				1.0082074403762817,
				0.10369035601615906,
				1.0082074403762817
			],
			"min":[
				-1.0082074403762817,
				-0.10369035601615906,
				-1.0082074403762817
			],
			"type":"VEC3"
		},
		{
			"bufferView":2,
			"componentType":5126,
			"count":31476,
			"type":"VEC3"
		},
		{
			"bufferView":3,
			"componentType":5126,
			"count":31476,
			"type":"VEC2"
		},
		{
			"bufferView":4,
			"componentType":5123,
			"count":184320,
			"type":"SCALAR"
		}
	],
	"bufferViews":[
		{
			"buffer":0,
			"byteLength":503616,
			"byteOffset":0,
			"target":34962
		},
		{
			"buffer":0,
			"byteLength":377712,
			"byteOffset":503616,
			"target":34962
		},
		{
			"buffer":0,
			"byteLength":377712,
			"byteOffset":881328,
			"target":34962
		},
		{
			"buffer":0,
			"byteLength":251808,
			"byteOffset":1259040,
			"target":34962
		},
		{
			"buffer":0,
			"byteLength":368640,
			"byteOffset":1510848,
			"target":34963
		}
	],
	"samplers":[
		{
			"magFilter":9729,
			"minFilter":9987
		}
	],
	"buffers":[
		{
			"byteLength":1879488,
			"uri":"Crypto2_outmesh.bin"
		}
	]
}
