{
	"asset":{
		"generator":"Khronos glTF Blender I/O v4.0.44",
		"version":"2.0"
	},
	"scene":0,
	"scenes":[
		{
			"name":"Scene",
			"nodes":[
				0
			]
		}
	],
	"nodes":[
		{
			"mesh":0,
			"name":"SolanaCoin"
		}
	],
	"materials":[
		{
			"doubleSided":true,
			"name":"SolanaMat",
			"normalTexture":{
				"index":0,
				"scale":0.40000003576278687
			},
			"pbrMetallicRoughness":{
				"baseColorTexture":{
					"index":1
				},
				"metallicRoughnessTexture":{
					"index":2
				}
			}
		}
	],
	"meshes":[
		{
			"name":"SOLANA_001.001",
			"primitives":[
				{
					"attributes":{
						"POSITION":0,
						"NORMAL":1,
						"TEXCOORD_0":2
					},
					"indices":3,
					"material":0
				}
			]
		}
	],
	"textures":[
		{
			"sampler":0,
			"source":0
		},
		{
			"sampler":1,
			"source":1
		},
		{
			"sampler":1,
			"source":2
		}
	],
	"images":[
		{
			"mimeType":"image/jpeg",
			"name":"SOLANA_LOGO_NB",
			"uri":"SOLANA_LOGO_NB.jpg"
		},
		{
			"mimeType":"image/jpeg",
			"name":"SOLANA_D",
			"uri":"SOLANA_D.jpg"
		},
		{
			"mimeType":"image/jpeg",
			"name":"Solana_Metallic-Solana_Rough",
			"uri":"Solana_Metallic-Solana_Rough.jpg"
		}
	],
	"accessors":[
		{
			"bufferView":0,
			"componentType":5126,
			"count":8880,
			"max":[
				1.0078116655349731,
				0.15166489779949188,
				1.0078115463256836
			],
			"min":[
				-1.0078116655349731,
				-0.15166530013084412,
				-1.0078116655349731
			],
			"type":"VEC3"
		},
		{
			"bufferView":1,
			"componentType":5126,
			"count":8880,
			"type":"VEC3"
		},
		{
			"bufferView":2,
			"componentType":5126,
			"count":8880,
			"type":"VEC2"
		},
		{
			"bufferView":3,
			"componentType":5123,
			"count":52800,
			"type":"SCALAR"
		}
	],
	"bufferViews":[
		{
			"buffer":0,
			"byteLength":106560,
			"byteOffset":0,
			"target":34962
		},
		{
			"buffer":0,
			"byteLength":106560,
			"byteOffset":106560,
			"target":34962
		},
		{
			"buffer":0,
			"byteLength":71040,
			"byteOffset":213120,
			"target":34962
		},
		{
			"buffer":0,
			"byteLength":105600,
			"byteOffset":284160,
			"target":34963
		}
	],
	"samplers":[
		{
			"magFilter":9728,
			"minFilter":9984
		},
		{
			"magFilter":9729,
			"minFilter":9987
		}
	],
	"buffers":[
		{
			"byteLength":389760,
			"uri":"Solana.bin"
		}
	]
}
