{
	"asset":{
		"generator":"Khronos glTF Blender I/O v4.0.44",
		"version":"2.0"
	},
	"scene":0,
	"scenes":[
		{
			"name":"Scene",
			"nodes":[
				0,
				1
			]
		}
	],
	"nodes":[
		{
			"mesh":0,
			"name":"Sphere",
			"scale":[
				14.380297660827637,
				14.380297660827637,
				14.380297660827637
			]
		},
		{
			"mesh":1,
			"name":"OutSilver.001"
		}
	],
	"materials":[
		{
			"doubleSided":true,
			"emissiveFactor":[
				1,
				1,
				1
			],
			"emissiveTexture":{
				"index":0
			},
			"name":"HDRI",
			"pbrMetallicRoughness":{
				"baseColorTexture":{
					"index":1
				},
				"metallicFactor":0
			}
		},
		{
			"doubleSided":true,
			"name":"PatternSilver",
			"normalTexture":{
				"index":2
			},
			"pbrMetallicRoughness":{
				"baseColorTexture":{
					"index":3
				},
				"metallicRoughnessTexture":{
					"index":4
				}
			}
		}
	],
	"meshes":[
		{
			"name":"Sphere",
			"primitives":[
				{
					"attributes":{
						"POSITION":0,
						"NORMAL":1,
						"TEXCOORD_0":2
					},
					"indices":3,
					"material":0
				}
			]
		},
		{
			"name":"Cylinder.006",
			"primitives":[
				{
					"attributes":{
						"COLOR_0":4,
						"POSITION":5,
						"NORMAL":6,
						"TEXCOORD_0":7
					},
					"indices":8,
					"material":1
				}
			]
		}
	],
	"textures":[
		{
			"sampler":0,
			"source":0
		},
		{
			"sampler":0,
			"source":0
		},
		{
			"sampler":0,
			"source":1
		},
		{
			"sampler":0,
			"source":2
		},
		{
			"sampler":0,
			"source":3
		}
	],
	"images":[
		{
			"mimeType":"image/jpeg",
			"name":"studio_small_08_2k",
			"uri":"studio_small_08_2k.jpg"
		},
		{
			"mimeType":"image/jpeg",
			"name":"OutSilver_N",
			"uri":"OutSilver_N.jpg"
		},
		{
			"mimeType":"image/jpeg",
			"name":"OutSilver_D",
			"uri":"OutSilver_D.jpg"
		},
		{
			"mimeType":"image/jpeg",
			"name":"OutSilver_M-Out_R",
			"uri":"OutSilver_M-Out_R.jpg"
		}
	],
	"accessors":[
		{
			"bufferView":0,
			"componentType":5126,
			"count":1984,
			"max":[
				0.9999997019767761,
				1,
				0.9999993443489075
			],
			"min":[
				-0.9999990463256836,
				-1,
				-1
			],
			"type":"VEC3"
		},
		{
			"bufferView":1,
			"componentType":5126,
			"count":1984,
			"type":"VEC3"
		},
		{
			"bufferView":2,
			"componentType":5126,
			"count":1984,
			"type":"VEC2"
		},
		{
			"bufferView":3,
			"componentType":5123,
			"count":2880,
			"type":"SCALAR"
		},
		{
			"bufferView":4,
			"componentType":5126,
			"count":31476,
			"type":"VEC4"
		},
		{
			"bufferView":5,
			"componentType":5126,
			"count":31476,
			"max":[
				1.0082074403762817,
				0.10369035601615906,
				1.0082074403762817
			],
			"min":[
				-1.0082074403762817,
				-0.10369035601615906,
				-1.0082074403762817
			],
			"type":"VEC3"
		},
		{
			"bufferView":6,
			"componentType":5126,
			"count":31476,
			"type":"VEC3"
		},
		{
			"bufferView":7,
			"componentType":5126,
			"count":31476,
			"type":"VEC2"
		},
		{
			"bufferView":8,
			"componentType":5123,
			"count":184320,
			"type":"SCALAR"
		}
	],
	"bufferViews":[
		{
			"buffer":0,
			"byteLength":23808,
			"byteOffset":0,
			"target":34962
		},
		{
			"buffer":0,
			"byteLength":23808,
			"byteOffset":23808,
			"target":34962
		},
		{
			"buffer":0,
			"byteLength":15872,
			"byteOffset":47616,
			"target":34962
		},
		{
			"buffer":0,
			"byteLength":5760,
			"byteOffset":63488,
			"target":34963
		},
		{
			"buffer":0,
			"byteLength":503616,
			"byteOffset":69248,
			"target":34962
		},
		{
			"buffer":0,
			"byteLength":377712,
			"byteOffset":572864,
			"target":34962
		},
		{
			"buffer":0,
			"byteLength":377712,
			"byteOffset":950576,
			"target":34962
		},
		{
			"buffer":0,
			"byteLength":251808,
			"byteOffset":1328288,
			"target":34962
		},
		{
			"buffer":0,
			"byteLength":368640,
			"byteOffset":1580096,
			"target":34963
		}
	],
	"samplers":[
		{
			"magFilter":9729,
			"minFilter":9987
		}
	],
	"buffers":[
		{
			"byteLength":1948736,
			"uri":"Crypto2_insphere.bin"
		}
	]
}
